<mxfile host="Electron" modified="2024-04-12T13:48:00.041Z" agent="Mozilla/5.0 (Windows NT 10.0; Win64; x64) AppleWebKit/537.36 (KHTML, like Gecko) draw.io/24.1.0 Chrome/120.0.6099.109 Electron/28.1.0 Safari/537.36" etag="CmwUd4WrCiw_Pdv_3-ql" version="24.1.0" type="device">
  <diagram name="Page-1" id="q0_XUzZXjNKxj1M_8xcS">
    <mxGraphModel dx="1050" dy="621" grid="1" gridSize="10" guides="1" tooltips="1" connect="1" arrows="1" fold="1" page="1" pageScale="1" pageWidth="827" pageHeight="1169" math="0" shadow="0">
      <root>
        <mxCell id="0" />
        <mxCell id="1" parent="0" />
        <mxCell id="fel4gTVQyy9HPU2xVSti-1" value="&lt;font style=&quot;font-size: 16px;&quot;&gt;&lt;b&gt;StudyNotion Hirachy Structure&lt;/b&gt;&lt;/font&gt;" style="rounded=0;whiteSpace=wrap;html=1;" parent="1" vertex="1">
          <mxGeometry x="450" y="40" width="270" height="40" as="geometry" />
        </mxCell>
        <mxCell id="fel4gTVQyy9HPU2xVSti-2" value="" style="endArrow=classic;startArrow=classic;html=1;rounded=0;exitX=0.5;exitY=0;exitDx=0;exitDy=0;" parent="1" source="fel4gTVQyy9HPU2xVSti-6" edge="1">
          <mxGeometry width="50" height="50" relative="1" as="geometry">
            <mxPoint x="185" y="280" as="sourcePoint" />
            <mxPoint x="985" y="280" as="targetPoint" />
            <Array as="points">
              <mxPoint x="190" y="200" />
              <mxPoint x="345" y="200" />
              <mxPoint x="855" y="200" />
              <mxPoint x="985" y="200" />
            </Array>
          </mxGeometry>
        </mxCell>
        <mxCell id="fel4gTVQyy9HPU2xVSti-3" value="" style="endArrow=none;html=1;rounded=0;entryX=0.5;entryY=1;entryDx=0;entryDy=0;" parent="1" target="fel4gTVQyy9HPU2xVSti-1" edge="1">
          <mxGeometry width="50" height="50" relative="1" as="geometry">
            <mxPoint x="585" y="200" as="sourcePoint" />
            <mxPoint x="550" y="70" as="targetPoint" />
          </mxGeometry>
        </mxCell>
        <mxCell id="fel4gTVQyy9HPU2xVSti-4" value="&lt;font style=&quot;font-size: 16px;&quot;&gt;Login&lt;/font&gt;" style="rounded=0;whiteSpace=wrap;html=1;" parent="1" vertex="1">
          <mxGeometry x="475" y="120" width="220" height="40" as="geometry" />
        </mxCell>
        <mxCell id="fel4gTVQyy9HPU2xVSti-6" value="&lt;font style=&quot;font-size: 16px;&quot;&gt;Student&lt;/font&gt;" style="rounded=0;whiteSpace=wrap;html=1;" parent="1" vertex="1">
          <mxGeometry x="80" y="280" width="220" height="40" as="geometry" />
        </mxCell>
        <mxCell id="fel4gTVQyy9HPU2xVSti-13" value="" style="edgeStyle=orthogonalEdgeStyle;rounded=0;orthogonalLoop=1;jettySize=auto;html=1;" parent="1" source="fel4gTVQyy9HPU2xVSti-7" target="fel4gTVQyy9HPU2xVSti-12" edge="1">
          <mxGeometry relative="1" as="geometry" />
        </mxCell>
        <mxCell id="fel4gTVQyy9HPU2xVSti-29" value="" style="edgeStyle=orthogonalEdgeStyle;rounded=0;orthogonalLoop=1;jettySize=auto;html=1;" parent="1" source="fel4gTVQyy9HPU2xVSti-7" target="fel4gTVQyy9HPU2xVSti-8" edge="1">
          <mxGeometry relative="1" as="geometry" />
        </mxCell>
        <mxCell id="fel4gTVQyy9HPU2xVSti-7" value="&lt;font style=&quot;font-size: 16px;&quot;&gt;Home Page&lt;/font&gt;" style="rounded=0;whiteSpace=wrap;html=1;" parent="1" vertex="1">
          <mxGeometry x="80" y="380" width="220" height="40" as="geometry" />
        </mxCell>
        <mxCell id="fel4gTVQyy9HPU2xVSti-30" value="" style="edgeStyle=orthogonalEdgeStyle;rounded=0;orthogonalLoop=1;jettySize=auto;html=1;" parent="1" source="fel4gTVQyy9HPU2xVSti-8" target="fel4gTVQyy9HPU2xVSti-9" edge="1">
          <mxGeometry relative="1" as="geometry" />
        </mxCell>
        <mxCell id="fel4gTVQyy9HPU2xVSti-8" value="&lt;font style=&quot;font-size: 16px;&quot;&gt;Course Page&lt;/font&gt;" style="rounded=0;whiteSpace=wrap;html=1;" parent="1" vertex="1">
          <mxGeometry x="80" y="480" width="220" height="40" as="geometry" />
        </mxCell>
        <mxCell id="fel4gTVQyy9HPU2xVSti-31" value="" style="edgeStyle=orthogonalEdgeStyle;rounded=0;orthogonalLoop=1;jettySize=auto;html=1;" parent="1" source="fel4gTVQyy9HPU2xVSti-9" target="fel4gTVQyy9HPU2xVSti-10" edge="1">
          <mxGeometry relative="1" as="geometry" />
        </mxCell>
        <mxCell id="fel4gTVQyy9HPU2xVSti-9" value="&lt;span style=&quot;font-size: 16px;&quot;&gt;Contact Us Page&lt;/span&gt;" style="rounded=0;whiteSpace=wrap;html=1;" parent="1" vertex="1">
          <mxGeometry x="80" y="580" width="220" height="40" as="geometry" />
        </mxCell>
        <mxCell id="fel4gTVQyy9HPU2xVSti-33" value="" style="edgeStyle=orthogonalEdgeStyle;rounded=0;orthogonalLoop=1;jettySize=auto;html=1;" parent="1" source="fel4gTVQyy9HPU2xVSti-10" target="fel4gTVQyy9HPU2xVSti-27" edge="1">
          <mxGeometry relative="1" as="geometry" />
        </mxCell>
        <mxCell id="fel4gTVQyy9HPU2xVSti-10" value="&lt;span style=&quot;font-size: 16px;&quot;&gt;Dashboard&lt;/span&gt;" style="rounded=0;whiteSpace=wrap;html=1;" parent="1" vertex="1">
          <mxGeometry x="80" y="680" width="220" height="40" as="geometry" />
        </mxCell>
        <mxCell id="fel4gTVQyy9HPU2xVSti-11" value="" style="endArrow=classic;html=1;rounded=0;exitX=0.5;exitY=1;exitDx=0;exitDy=0;entryX=0.5;entryY=0;entryDx=0;entryDy=0;" parent="1" source="fel4gTVQyy9HPU2xVSti-6" target="fel4gTVQyy9HPU2xVSti-7" edge="1">
          <mxGeometry width="50" height="50" relative="1" as="geometry">
            <mxPoint x="490" y="520" as="sourcePoint" />
            <mxPoint x="540" y="470" as="targetPoint" />
          </mxGeometry>
        </mxCell>
        <mxCell id="fel4gTVQyy9HPU2xVSti-12" value="&lt;font style=&quot;font-size: 16px;&quot;&gt;Detail Information&lt;/font&gt;" style="rounded=0;whiteSpace=wrap;html=1;" parent="1" vertex="1">
          <mxGeometry x="380" y="380" width="140" height="40" as="geometry" />
        </mxCell>
        <mxCell id="fel4gTVQyy9HPU2xVSti-14" value="&lt;font style=&quot;font-size: 16px;&quot;&gt;Browse Course&lt;/font&gt;" style="rounded=0;whiteSpace=wrap;html=1;" parent="1" vertex="1">
          <mxGeometry x="380" y="480" width="140" height="40" as="geometry" />
        </mxCell>
        <mxCell id="fel4gTVQyy9HPU2xVSti-15" value="" style="endArrow=classic;html=1;rounded=0;exitX=1;exitY=0.5;exitDx=0;exitDy=0;entryX=0;entryY=0.5;entryDx=0;entryDy=0;" parent="1" source="fel4gTVQyy9HPU2xVSti-8" target="fel4gTVQyy9HPU2xVSti-14" edge="1">
          <mxGeometry width="50" height="50" relative="1" as="geometry">
            <mxPoint x="310" y="500" as="sourcePoint" />
            <mxPoint x="540" y="470" as="targetPoint" />
          </mxGeometry>
        </mxCell>
        <mxCell id="fel4gTVQyy9HPU2xVSti-16" value="&lt;span style=&quot;font-size: 16px;&quot;&gt;Contact Us Form&lt;/span&gt;" style="rounded=0;whiteSpace=wrap;html=1;" parent="1" vertex="1">
          <mxGeometry x="380" y="580" width="140" height="40" as="geometry" />
        </mxCell>
        <mxCell id="fel4gTVQyy9HPU2xVSti-17" value="&lt;span style=&quot;font-size: 16px;&quot;&gt;Enrolle&lt;/span&gt;&lt;span style=&quot;color: rgba(0, 0, 0, 0); font-family: monospace; font-size: 0px; text-align: start; text-wrap: nowrap;&quot;&gt;%3CmxGraphModel%3E%3Croot%3E%3CmxCell%20id%3D%220%22%2F%3E%3CmxCell%20id%3D%221%22%20parent%3D%220%22%2F%3E%3CmxCell%20id%3D%222%22%20value%3D%22%26lt%3Bspan%20style%3D%26quot%3Bfont-size%3A%2016px%3B%26quot%3B%26gt%3BContact%20Us%20Form%26lt%3B%2Fspan%26gt%3B%22%20style%3D%22rounded%3D0%3BwhiteSpace%3Dwrap%3Bhtml%3D1%3B%22%20vertex%3D%221%22%20parent%3D%221%22%3E%3CmxGeometry%20x%3D%22380%22%20y%3D%22580%22%20width%3D%22140%22%20height%3D%2240%22%20as%3D%22geometry%22%2F%3E%3C%2FmxCell%3E%3C%2Froot%3E%3C%2FmxGraphModel%3E&lt;/span&gt;&lt;span style=&quot;font-size: 16px;&quot;&gt;d Cour&lt;/span&gt;&lt;span style=&quot;color: rgba(0, 0, 0, 0); font-family: monospace; font-size: 0px; text-align: start; text-wrap: nowrap;&quot;&gt;%3CmxGraphModel%3E%3Croot%3E%3CmxCell%20id%3D%220%22%2F%3E%3CmxCell%20id%3D%221%22%20parent%3D%220%22%2F%3E%3CmxCell%20id%3D%222%22%20value%3D%22%26lt%3Bspan%20style%3D%26quot%3Bfont-size%3A%2016px%3B%26quot%3B%26gt%3BContact%20Us%20Form%26lt%3B%2Fspan%26gt%3B%22%20style%3D%22rounded%3D0%3BwhiteSpace%3Dwrap%3Bhtml%3D1%3B%22%20vertex%3D%221%22%20parent%3D%221%22%3E%3CmxGeometry%20x%3D%22380%22%20y%3D%22580%22%20width%3D%22140%22%20height%3D%2240%22%20as%3D%22geometry%22%2F%3E%3C%2FmxCell%3E%3C%2Froot%3E%3C%2FmxGraphModel%3E&lt;/span&gt;&lt;span style=&quot;font-size: 16px;&quot;&gt;ses&lt;/span&gt;" style="rounded=0;whiteSpace=wrap;html=1;" parent="1" vertex="1">
          <mxGeometry x="380" y="680" width="140" height="40" as="geometry" />
        </mxCell>
        <mxCell id="fel4gTVQyy9HPU2xVSti-18" value="&lt;span style=&quot;font-size: 16px;&quot;&gt;Course Progress&lt;/span&gt;" style="rounded=0;whiteSpace=wrap;html=1;" parent="1" vertex="1">
          <mxGeometry x="380" y="760" width="140" height="40" as="geometry" />
        </mxCell>
        <mxCell id="fel4gTVQyy9HPU2xVSti-19" value="&lt;span style=&quot;font-size: 16px;&quot;&gt;Student Profile&lt;/span&gt;" style="rounded=0;whiteSpace=wrap;html=1;" parent="1" vertex="1">
          <mxGeometry x="380" y="840" width="140" height="40" as="geometry" />
        </mxCell>
        <mxCell id="fel4gTVQyy9HPU2xVSti-20" value="" style="endArrow=classic;html=1;rounded=0;exitX=1;exitY=0.5;exitDx=0;exitDy=0;entryX=0;entryY=0.5;entryDx=0;entryDy=0;" parent="1" source="fel4gTVQyy9HPU2xVSti-9" target="fel4gTVQyy9HPU2xVSti-16" edge="1">
          <mxGeometry width="50" height="50" relative="1" as="geometry">
            <mxPoint x="310" y="510" as="sourcePoint" />
            <mxPoint x="390" y="510" as="targetPoint" />
          </mxGeometry>
        </mxCell>
        <mxCell id="fel4gTVQyy9HPU2xVSti-21" value="" style="endArrow=classic;html=1;rounded=0;entryX=0;entryY=0.5;entryDx=0;entryDy=0;" parent="1" edge="1">
          <mxGeometry width="50" height="50" relative="1" as="geometry">
            <mxPoint x="330" y="699" as="sourcePoint" />
            <mxPoint x="380" y="699.41" as="targetPoint" />
          </mxGeometry>
        </mxCell>
        <mxCell id="fel4gTVQyy9HPU2xVSti-22" value="" style="endArrow=none;html=1;rounded=0;exitX=1;exitY=0.5;exitDx=0;exitDy=0;" parent="1" edge="1">
          <mxGeometry width="50" height="50" relative="1" as="geometry">
            <mxPoint x="300" y="699" as="sourcePoint" />
            <mxPoint x="330" y="940" as="targetPoint" />
            <Array as="points">
              <mxPoint x="330" y="699" />
            </Array>
          </mxGeometry>
        </mxCell>
        <mxCell id="fel4gTVQyy9HPU2xVSti-23" value="" style="endArrow=classic;html=1;rounded=0;entryX=0;entryY=0.5;entryDx=0;entryDy=0;" parent="1" edge="1">
          <mxGeometry width="50" height="50" relative="1" as="geometry">
            <mxPoint x="330" y="779.41" as="sourcePoint" />
            <mxPoint x="380" y="779.8199999999999" as="targetPoint" />
          </mxGeometry>
        </mxCell>
        <mxCell id="fel4gTVQyy9HPU2xVSti-24" value="" style="endArrow=classic;html=1;rounded=0;entryX=0;entryY=0.5;entryDx=0;entryDy=0;" parent="1" edge="1">
          <mxGeometry width="50" height="50" relative="1" as="geometry">
            <mxPoint x="330" y="859.41" as="sourcePoint" />
            <mxPoint x="380" y="859.8199999999999" as="targetPoint" />
          </mxGeometry>
        </mxCell>
        <mxCell id="fel4gTVQyy9HPU2xVSti-25" value="&lt;span style=&quot;font-size: 16px;&quot;&gt;Settings&lt;/span&gt;" style="rounded=0;whiteSpace=wrap;html=1;" parent="1" vertex="1">
          <mxGeometry x="380" y="920" width="140" height="40" as="geometry" />
        </mxCell>
        <mxCell id="fel4gTVQyy9HPU2xVSti-26" value="" style="endArrow=classic;html=1;rounded=0;entryX=0;entryY=0.5;entryDx=0;entryDy=0;" parent="1" edge="1">
          <mxGeometry width="50" height="50" relative="1" as="geometry">
            <mxPoint x="330" y="939.41" as="sourcePoint" />
            <mxPoint x="380" y="939.8199999999999" as="targetPoint" />
          </mxGeometry>
        </mxCell>
        <mxCell id="fel4gTVQyy9HPU2xVSti-32" value="" style="edgeStyle=orthogonalEdgeStyle;rounded=0;orthogonalLoop=1;jettySize=auto;html=1;" parent="1" source="fel4gTVQyy9HPU2xVSti-27" target="fel4gTVQyy9HPU2xVSti-28" edge="1">
          <mxGeometry relative="1" as="geometry" />
        </mxCell>
        <mxCell id="fel4gTVQyy9HPU2xVSti-27" value="&lt;span style=&quot;font-size: 16px;&quot;&gt;Cart&lt;/span&gt;" style="rounded=0;whiteSpace=wrap;html=1;" parent="1" vertex="1">
          <mxGeometry x="80" y="760" width="220" height="40" as="geometry" />
        </mxCell>
        <mxCell id="fel4gTVQyy9HPU2xVSti-28" value="&lt;span style=&quot;font-size: 16px;&quot;&gt;Review and Ratings&lt;/span&gt;" style="rounded=0;whiteSpace=wrap;html=1;" parent="1" vertex="1">
          <mxGeometry x="80" y="840" width="220" height="40" as="geometry" />
        </mxCell>
        <mxCell id="fel4gTVQyy9HPU2xVSti-34" value="&lt;span style=&quot;font-size: 16px;&quot;&gt;Instructor&lt;/span&gt;" style="rounded=0;whiteSpace=wrap;html=1;" parent="1" vertex="1">
          <mxGeometry x="890" y="280" width="220" height="40" as="geometry" />
        </mxCell>
        <mxCell id="fel4gTVQyy9HPU2xVSti-37" value="" style="edgeStyle=orthogonalEdgeStyle;rounded=0;orthogonalLoop=1;jettySize=auto;html=1;" parent="1" source="fel4gTVQyy9HPU2xVSti-35" target="fel4gTVQyy9HPU2xVSti-36" edge="1">
          <mxGeometry relative="1" as="geometry" />
        </mxCell>
        <mxCell id="fel4gTVQyy9HPU2xVSti-39" value="" style="edgeStyle=orthogonalEdgeStyle;rounded=0;orthogonalLoop=1;jettySize=auto;html=1;" parent="1" source="fel4gTVQyy9HPU2xVSti-35" target="fel4gTVQyy9HPU2xVSti-38" edge="1">
          <mxGeometry relative="1" as="geometry" />
        </mxCell>
        <mxCell id="fel4gTVQyy9HPU2xVSti-35" value="&lt;font style=&quot;font-size: 16px;&quot;&gt;Home Page&lt;/font&gt;" style="rounded=0;whiteSpace=wrap;html=1;" parent="1" vertex="1">
          <mxGeometry x="890" y="380" width="220" height="40" as="geometry" />
        </mxCell>
        <mxCell id="fel4gTVQyy9HPU2xVSti-36" value="&lt;font style=&quot;font-size: 16px;&quot;&gt;Detail Information&lt;/font&gt;" style="rounded=0;whiteSpace=wrap;html=1;" parent="1" vertex="1">
          <mxGeometry x="640" y="380" width="140" height="40" as="geometry" />
        </mxCell>
        <mxCell id="fel4gTVQyy9HPU2xVSti-41" value="" style="edgeStyle=orthogonalEdgeStyle;rounded=0;orthogonalLoop=1;jettySize=auto;html=1;" parent="1" source="fel4gTVQyy9HPU2xVSti-38" target="fel4gTVQyy9HPU2xVSti-40" edge="1">
          <mxGeometry relative="1" as="geometry" />
        </mxCell>
        <mxCell id="fel4gTVQyy9HPU2xVSti-46" value="" style="edgeStyle=orthogonalEdgeStyle;rounded=0;orthogonalLoop=1;jettySize=auto;html=1;" parent="1" source="fel4gTVQyy9HPU2xVSti-38" target="fel4gTVQyy9HPU2xVSti-44" edge="1">
          <mxGeometry relative="1" as="geometry" />
        </mxCell>
        <mxCell id="fel4gTVQyy9HPU2xVSti-38" value="&lt;span style=&quot;font-size: 16px;&quot;&gt;View Course&lt;/span&gt;" style="rounded=0;whiteSpace=wrap;html=1;" parent="1" vertex="1">
          <mxGeometry x="890" y="480" width="220" height="40" as="geometry" />
        </mxCell>
        <mxCell id="fel4gTVQyy9HPU2xVSti-50" value="" style="edgeStyle=orthogonalEdgeStyle;rounded=0;orthogonalLoop=1;jettySize=auto;html=1;" parent="1" source="fel4gTVQyy9HPU2xVSti-40" target="fel4gTVQyy9HPU2xVSti-49" edge="1">
          <mxGeometry relative="1" as="geometry" />
        </mxCell>
        <mxCell id="fel4gTVQyy9HPU2xVSti-52" value="" style="edgeStyle=orthogonalEdgeStyle;rounded=0;orthogonalLoop=1;jettySize=auto;html=1;" parent="1" source="fel4gTVQyy9HPU2xVSti-40" target="fel4gTVQyy9HPU2xVSti-51" edge="1">
          <mxGeometry relative="1" as="geometry" />
        </mxCell>
        <mxCell id="fel4gTVQyy9HPU2xVSti-40" value="&lt;span style=&quot;font-size: 16px;&quot;&gt;View Rating Review&lt;/span&gt;" style="rounded=0;whiteSpace=wrap;html=1;" parent="1" vertex="1">
          <mxGeometry x="890" y="580" width="220" height="40" as="geometry" />
        </mxCell>
        <mxCell id="fel4gTVQyy9HPU2xVSti-44" value="&lt;font style=&quot;font-size: 16px;&quot;&gt;All Courses&lt;/font&gt;" style="rounded=0;whiteSpace=wrap;html=1;" parent="1" vertex="1">
          <mxGeometry x="640" y="480" width="140" height="40" as="geometry" />
        </mxCell>
        <mxCell id="fel4gTVQyy9HPU2xVSti-49" value="&lt;font style=&quot;font-size: 16px;&quot;&gt;Read Reviews&lt;/font&gt;" style="rounded=0;whiteSpace=wrap;html=1;" parent="1" vertex="1">
          <mxGeometry x="640" y="580" width="140" height="40" as="geometry" />
        </mxCell>
        <mxCell id="fel4gTVQyy9HPU2xVSti-51" value="&lt;span style=&quot;font-size: 16px;&quot;&gt;Dashboard&lt;/span&gt;" style="rounded=0;whiteSpace=wrap;html=1;" parent="1" vertex="1">
          <mxGeometry x="890" y="680" width="220" height="40" as="geometry" />
        </mxCell>
        <mxCell id="fel4gTVQyy9HPU2xVSti-53" value="&lt;font style=&quot;font-size: 16px;&quot;&gt;Instructo&lt;span style=&quot;color: rgba(0, 0, 0, 0); font-family: monospace; font-size: 0px; text-align: start; text-wrap: nowrap;&quot;&gt;%3CmxGraphModel%3E%3Croot%3E%3CmxCell%20id%3D%220%22%2F%3E%3CmxCell%20id%3D%221%22%20parent%3D%220%22%2F%3E%3CmxCell%20id%3D%222%22%20value%3D%22%26lt%3Bfont%20style%3D%26quot%3Bfont-size%3A%2016px%3B%26quot%3B%26gt%3BRead%20Reviews%26lt%3B%2Ffont%26gt%3B%22%20style%3D%22rounded%3D0%3BwhiteSpace%3Dwrap%3Bhtml%3D1%3B%22%20vertex%3D%221%22%20parent%3D%221%22%3E%3CmxGeometry%20x%3D%22640%22%20y%3D%22580%22%20width%3D%22140%22%20height%3D%2240%22%20as%3D%22geometry%22%2F%3E%3C%2FmxCell%3E%3C%2Froot%3E%3C%2FmxGraphModel%3E&lt;/span&gt;r Profile&lt;/font&gt;" style="rounded=0;whiteSpace=wrap;html=1;" parent="1" vertex="1">
          <mxGeometry x="640" y="680" width="140" height="40" as="geometry" />
        </mxCell>
        <mxCell id="fel4gTVQyy9HPU2xVSti-54" value="&lt;span style=&quot;font-size: 16px;&quot;&gt;Create Courses&lt;/span&gt;" style="rounded=0;whiteSpace=wrap;html=1;" parent="1" vertex="1">
          <mxGeometry x="640" y="760" width="140" height="40" as="geometry" />
        </mxCell>
        <mxCell id="fel4gTVQyy9HPU2xVSti-55" value="&lt;span style=&quot;font-size: 16px;&quot;&gt;Visualize Data&lt;/span&gt;&lt;div&gt;&lt;span style=&quot;font-size: 16px;&quot;&gt;(Pie Chat)&lt;/span&gt;&lt;/div&gt;" style="rounded=0;whiteSpace=wrap;html=1;" parent="1" vertex="1">
          <mxGeometry x="640" y="930" width="140" height="40" as="geometry" />
        </mxCell>
        <mxCell id="fel4gTVQyy9HPU2xVSti-56" value="&lt;span style=&quot;font-size: 16px;&quot;&gt;Profile Settings&lt;/span&gt;" style="rounded=0;whiteSpace=wrap;html=1;" parent="1" vertex="1">
          <mxGeometry x="640" y="840" width="140" height="40" as="geometry" />
        </mxCell>
        <mxCell id="fel4gTVQyy9HPU2xVSti-57" value="&lt;span style=&quot;font-size: 16px;&quot;&gt;Course Data&lt;/span&gt;" style="rounded=0;whiteSpace=wrap;html=1;" parent="1" vertex="1">
          <mxGeometry x="540" y="1062" width="140" height="40" as="geometry" />
        </mxCell>
        <mxCell id="fel4gTVQyy9HPU2xVSti-58" value="&lt;span style=&quot;font-size: 16px;&quot;&gt;Payment Data&lt;/span&gt;" style="rounded=0;whiteSpace=wrap;html=1;" parent="1" vertex="1">
          <mxGeometry x="760" y="1061" width="140" height="40" as="geometry" />
        </mxCell>
        <mxCell id="fel4gTVQyy9HPU2xVSti-60" value="" style="endArrow=classic;startArrow=classic;html=1;rounded=0;exitX=0.5;exitY=0;exitDx=0;exitDy=0;entryX=0.5;entryY=0;entryDx=0;entryDy=0;" parent="1" source="fel4gTVQyy9HPU2xVSti-57" target="fel4gTVQyy9HPU2xVSti-58" edge="1">
          <mxGeometry width="50" height="50" relative="1" as="geometry">
            <mxPoint x="230" y="1080" as="sourcePoint" />
            <mxPoint x="1025" y="1080" as="targetPoint" />
            <Array as="points">
              <mxPoint x="610" y="1000" />
              <mxPoint x="680" y="1000" />
              <mxPoint x="830" y="1000" />
            </Array>
          </mxGeometry>
        </mxCell>
        <mxCell id="fel4gTVQyy9HPU2xVSti-61" value="" style="endArrow=none;html=1;rounded=0;entryX=0.5;entryY=1;entryDx=0;entryDy=0;" parent="1" target="fel4gTVQyy9HPU2xVSti-55" edge="1">
          <mxGeometry width="50" height="50" relative="1" as="geometry">
            <mxPoint x="710" y="1000" as="sourcePoint" />
            <mxPoint x="540" y="1060" as="targetPoint" />
          </mxGeometry>
        </mxCell>
        <mxCell id="ambMbZA7uL-Eb_3E7rE1-3" value="" style="endArrow=none;html=1;rounded=0;exitX=0;exitY=0.5;exitDx=0;exitDy=0;" edge="1" parent="1" source="fel4gTVQyy9HPU2xVSti-51">
          <mxGeometry width="50" height="50" relative="1" as="geometry">
            <mxPoint x="790" y="710" as="sourcePoint" />
            <mxPoint x="820" y="951" as="targetPoint" />
            <Array as="points">
              <mxPoint x="820" y="700" />
            </Array>
          </mxGeometry>
        </mxCell>
        <mxCell id="ambMbZA7uL-Eb_3E7rE1-6" value="" style="endArrow=classic;html=1;rounded=0;entryX=1;entryY=0.5;entryDx=0;entryDy=0;" edge="1" parent="1" target="fel4gTVQyy9HPU2xVSti-53">
          <mxGeometry width="50" height="50" relative="1" as="geometry">
            <mxPoint x="820" y="700" as="sourcePoint" />
            <mxPoint x="390" y="869.8199999999999" as="targetPoint" />
          </mxGeometry>
        </mxCell>
        <mxCell id="ambMbZA7uL-Eb_3E7rE1-7" value="" style="endArrow=classic;html=1;rounded=0;entryX=1;entryY=0.5;entryDx=0;entryDy=0;" edge="1" parent="1">
          <mxGeometry width="50" height="50" relative="1" as="geometry">
            <mxPoint x="820" y="779.5" as="sourcePoint" />
            <mxPoint x="780" y="779.5" as="targetPoint" />
          </mxGeometry>
        </mxCell>
        <mxCell id="ambMbZA7uL-Eb_3E7rE1-8" value="" style="endArrow=classic;html=1;rounded=0;entryX=1;entryY=0.5;entryDx=0;entryDy=0;" edge="1" parent="1">
          <mxGeometry width="50" height="50" relative="1" as="geometry">
            <mxPoint x="820" y="859.5" as="sourcePoint" />
            <mxPoint x="780" y="859.5" as="targetPoint" />
          </mxGeometry>
        </mxCell>
        <mxCell id="ambMbZA7uL-Eb_3E7rE1-9" value="" style="endArrow=classic;html=1;rounded=0;entryX=1;entryY=0.5;entryDx=0;entryDy=0;" edge="1" parent="1">
          <mxGeometry width="50" height="50" relative="1" as="geometry">
            <mxPoint x="820" y="949.5" as="sourcePoint" />
            <mxPoint x="780" y="949.5" as="targetPoint" />
          </mxGeometry>
        </mxCell>
      </root>
    </mxGraphModel>
  </diagram>
</mxfile>
